<svg xmlns="http://www.w3.org/2000/svg" width="72" height="72" viewBox="0 0 72 72">
  <g id="icon-sad-face" transform="translate(-1001 -785)">
    <g id="Group_15811" data-name="Group 15811" transform="translate(695 -74)">
      <g id="Icon" transform="translate(306 859)">
        <path id="Icon.BG" d="M36,0A36,36,0,1,1,0,36,36,36,0,0,1,36,0Z" fill="#25282a" opacity="0.114"/>
      </g>
    </g>
    <path id="face-frown-regular" d="M8.994,24.913a1.5,1.5,0,0,1-.906-1.919C9.181,19.963,12.431,18,16,18s6.819,1.963,7.913,4.994a1.5,1.5,0,1,1-2.825,1.013A5.256,5.256,0,0,0,16,21a5.256,5.256,0,0,0-5.087,3.006,1.5,1.5,0,0,1-1.919.906ZM13.025,13a2,2,0,1,1-2-2A2,2,0,0,1,13.025,13Zm6,0a2,2,0,1,1,2,2A2,2,0,0,1,19.025,13ZM32,16A16,16,0,1,1,16,0,16,16,0,0,1,32,16ZM16,3A13,13,0,1,0,29,16,13,13,0,0,0,16,3Z" transform="translate(1021 805)"/>
  </g>
</svg>
