<svg id="Icon_48_place_holder" data-name="Icon/48 place holder" xmlns="http://www.w3.org/2000/svg" width="32" height="32" viewBox="0 0 32 32">
  <rect id="Icon_48_place_holder_style_" data-name="Icon/48 place holder (style)" width="32" height="32" rx="16" fill="#f93822"/>
  <g id="UI_icon_activity_filled" data-name="UI icon/activity/filled" transform="translate(8.234 8.746)">
    <path id="Vector_605_Stroke_" data-name="Vector 605 (Stroke)" d="M5.816,1.86a.388.388,0,0,0-.759,0L4.129,6.189A2.33,2.33,0,0,1,1.851,8.031H.777a.777.777,0,0,1,0-1.553H1.851a.777.777,0,0,0,.759-.614l.928-4.329a1.942,1.942,0,0,1,3.8,0L9.716,12.649a.388.388,0,0,0,.759,0L11.4,8.319a2.33,2.33,0,0,1,2.278-1.842h1.074a.777.777,0,0,1,0,1.553H13.681a.777.777,0,0,0-.759.614l-.928,4.329a1.942,1.942,0,0,1-3.8,0Z" transform="translate(0 0)" fill="#fff"/>
  </g>
</svg>
